<?xml version="1.0" encoding="UTF-8"?>
<!DOCTYPE svg PUBLIC "-//W3C//DTD SVG 1.1//EN" "http://www.w3.org/Graphics/SVG/1.1/DTD/svg11.dtd">
<svg xmlns="http://www.w3.org/2000/svg" version="1.1" width="600px" height="800px" style="shape-rendering:geometricPrecision; text-rendering:geometricPrecision; image-rendering:optimizeQuality; fill-rule:evenodd; clip-rule:evenodd" xmlns:xlink="http://www.w3.org/1999/xlink">
<g><path style="opacity:1" fill="#9625a9" d="M 349.5,120.5 C 349.167,119.5 348.5,118.833 347.5,118.5C 348.574,112.749 347.907,112.415 345.5,117.5C 343.087,113.131 343.087,108.797 345.5,104.5C 345.333,103.5 345.167,102.5 345,101.5C 338.924,103.227 332.757,104.727 326.5,106C 331.238,107.344 335.905,107.511 340.5,106.5C 340.5,107.5 340.5,108.5 340.5,109.5C 331.679,110.049 323.846,113.049 317,118.5C 315.043,125.737 312.543,132.737 309.5,139.5C 307.123,139.216 304.956,139.216 303,139.5C 302.25,138.874 301.416,138.374 300.5,138C 299.729,135.56 299.562,133.06 300,130.5C 298.547,133.298 297.547,136.298 297,139.5C 295.536,138.541 294.703,137.208 294.5,135.5C 295.331,133.527 295.498,131.527 295,129.5C 293.764,128.601 292.93,127.434 292.5,126C 298.195,111.444 304.028,96.9435 310,82.5C 310.498,80.4556 311.665,79.1223 313.5,78.5C 313.119,71.4511 315.453,65.6178 320.5,61C 319.692,60.6924 319.025,60.1924 318.5,59.5C 320.575,54.2755 322.242,48.9422 323.5,43.5C 325.792,43.2436 327.959,43.5769 330,44.5C 332.868,42.5999 336.034,41.5999 339.5,41.5C 343.818,42.6664 348.152,43.9997 352.5,45.5C 355.659,58.4677 358.659,71.4677 361.5,84.5C 364.247,84.1866 366.914,84.52 369.5,85.5C 369.291,86.086 368.957,86.586 368.5,87C 366.5,87.3333 364.5,87.6667 362.5,88C 366.51,90.1728 370.843,91.0061 375.5,90.5C 375.67,91.8221 375.337,92.9887 374.5,94C 371.28,95.3524 367.947,96.1857 364.5,96.5C 364.756,98.9372 365.423,101.271 366.5,103.5C 365.606,112.747 365.606,122.081 366.5,131.5C 364.422,138.184 364.756,144.851 367.5,151.5C 366.349,152.731 365.183,152.731 364,151.5C 363.716,153.886 362.716,154.552 361,153.5C 360.424,156.124 359.09,156.791 357,155.5C 355.333,149.833 353.667,144.167 352,138.5C 351.418,141.668 350.418,142.001 349,139.5C 347.823,135.48 347.656,131.48 348.5,127.5C 349.687,128.894 350.354,128.727 350.5,127C 349.713,124.901 349.38,122.734 349.5,120.5 Z M 335.5,69.5 C 336.497,69.4701 337.164,69.9701 337.5,71C 338.602,75.5741 339.935,80.0741 341.5,84.5C 338.474,90.0161 333.808,92.1827 327.5,91C 330.86,84.085 333.527,76.9184 335.5,69.5 Z M 313.5,78.5 C 315.225,78.8425 315.725,79.8425 315,81.5C 313.961,80.7562 313.461,79.7562 313.5,78.5 Z M 323.5,82.5 C 323.833,82.5 324.167,82.5 324.5,82.5C 322.804,86.3642 322.471,86.3642 323.5,82.5 Z"/></g>
<g><path style="opacity:1" fill="#9625a9" d="M 240.5,79.5 C 240.217,78.7109 239.717,78.0442 239,77.5C 238.667,78.8333 238.333,80.1667 238,81.5C 237.79,79.9419 237.29,78.6085 236.5,77.5C 235.263,74.7554 233.43,72.4221 231,70.5C 230.047,67.5682 229.547,64.5682 229.5,61.5C 227.801,61.3398 226.134,61.5065 224.5,62C 225.448,62.4828 226.448,62.6495 227.5,62.5C 227.5,63.5 227.5,64.5 227.5,65.5C 213.575,65.6313 201.575,70.4647 191.5,80C 207.084,84.5979 218.75,93.9312 226.5,108C 222.156,120.016 214.489,129.349 203.5,136C 201.866,136.494 200.199,136.66 198.5,136.5C 198.126,139.888 196.126,141.722 192.5,142C 187.475,143.105 182.475,144.271 177.5,145.5C 176.614,144.675 176.281,143.675 176.5,142.5C 178.527,142.662 180.527,142.495 182.5,142C 180.048,141.71 177.715,141.044 175.5,140C 172.223,137.266 169.056,134.432 166,131.5C 164.517,128.298 164.183,124.964 165,121.5C 165.739,120.426 166.739,119.759 168,119.5C 169.908,120.454 171.908,121.121 174,121.5C 185.505,120.449 195.505,116.116 204,108.5C 204.931,106.541 205.764,104.541 206.5,102.5C 201.207,98.348 195.374,96.348 189,96.5C 186,95.1667 183,93.8333 180,92.5C 178.919,94.7671 177.419,94.9338 175.5,93C 172,90.1667 168.833,87 166,83.5C 164.699,81.6354 164.365,79.6354 165,77.5C 168.04,71.9184 171.207,66.4184 174.5,61C 183.31,56.2875 191.81,50.4541 200,43.5C 206.344,45.1849 212.844,46.1849 219.5,46.5C 219.5,47.5 219.5,48.5 219.5,49.5C 225.308,49.808 228.808,52.808 230,58.5C 234.791,56.4381 239.457,54.1047 244,51.5C 243.043,49.458 241.877,47.2913 240.5,45C 240.667,43.5 241.5,42.6667 243,42.5C 246.128,43.2037 249.294,43.7037 252.5,44C 253.249,45.7337 253.749,47.567 254,49.5C 254.118,47.4267 255.118,46.0933 257,45.5C 258.546,47.2409 260.546,48.2409 263,48.5C 268.355,47.9427 273.689,48.6094 279,50.5C 286.533,47.7925 292.533,49.7925 297,56.5C 297.101,60.7509 297.268,64.9176 297.5,69C 297.18,71.7995 296.18,74.2995 294.5,76.5C 293.808,75.9747 293.308,75.3081 293,74.5C 284.91,93.7527 270.744,106.086 250.5,111.5C 249.176,120.179 248.676,128.846 249,137.5C 246.707,141.252 244.54,145.086 242.5,149C 238.958,148.743 235.624,147.577 232.5,145.5C 232.09,141.896 231.923,138.229 232,134.5C 230.779,133.226 229.946,131.726 229.5,130C 230.244,117.757 232.244,105.591 235.5,93.5C 234.754,92.2638 234.421,90.9305 234.5,89.5C 235.833,89.5 237.167,89.5 238.5,89.5C 239.167,86.1667 239.833,82.8333 240.5,79.5 Z M 208.5,61.5 C 210.044,60.086 211.711,59.7526 213.5,60.5C 211.955,61.4519 210.288,61.7852 208.5,61.5 Z M 277.5,67.5 C 278.552,67.3505 279.552,67.5172 280.5,68C 274.102,75.6898 266.435,81.6898 257.5,86C 256.167,86.6667 254.833,86.6667 253.5,86C 254.259,81.5288 255.092,77.0288 256,72.5C 256.5,72 257,71.5 257.5,71C 264.159,69.1311 270.826,67.9644 277.5,67.5 Z M 273.5,80.5 C 267.921,86.9557 260.921,90.789 252.5,92C 259.554,88.1421 266.554,84.3087 273.5,80.5 Z"/></g>
<g><path style="opacity:1" fill="#9825ab" d="M 481.5,97.5 C 476.722,97.1649 472.722,97.4982 469.5,98.5C 469.5,99.1667 469.833,99.5 470.5,99.5C 470.5,99.8333 470.5,100.167 470.5,100.5C 468.143,104.527 466.143,108.86 464.5,113.5C 464.167,113.833 463.833,114.167 463.5,114.5C 462.702,112.922 462.202,111.256 462,109.5C 461.73,112.224 461.23,114.891 460.5,117.5C 462,117.833 463.5,118.167 465,118.5C 480.829,115.921 496.662,115.254 512.5,116.5C 513.275,118.388 513.275,120.388 512.5,122.5C 512.192,126.009 510.192,127.676 506.5,127.5C 503.873,128.105 501.207,128.605 498.5,129C 501.482,129.498 504.482,129.665 507.5,129.5C 507.5,130.5 507.5,131.5 507.5,132.5C 492.144,134.432 476.81,136.598 461.5,139C 457.5,139.667 453.5,139.667 449.5,139C 448.28,137.475 447.613,135.641 447.5,133.5C 447.892,128.999 448.892,124.666 450.5,120.5C 451.29,121.609 451.79,122.942 452,124.5C 452.513,123.473 453.013,122.473 453.5,121.5C 453.557,120.391 453.89,119.391 454.5,118.5C 454.5,117.833 454.5,117.167 454.5,116.5C 454.5,116.167 454.5,115.833 454.5,115.5C 455.775,112.396 455.775,109.396 454.5,106.5C 454.5,104.167 454.5,101.833 454.5,99.5C 454.5,98.8333 454.5,98.1667 454.5,97.5C 454.068,96.2905 453.401,95.2905 452.5,94.5C 454.142,91.9278 454.476,89.2612 453.5,86.5C 454.497,80.5266 455.33,74.5266 456,68.5C 456.667,67.1667 457.333,67.1667 458,68.5C 458.66,65.9528 458.493,63.4528 457.5,61C 458.764,56.2478 459.431,51.4145 459.5,46.5C 476.92,47.2447 494.586,47.7447 512.5,48C 516.757,49.7727 517.59,52.606 515,56.5C 514.215,58.286 513.049,59.786 511.5,61C 500.485,61.1676 489.485,61.6676 478.5,62.5C 481.218,64.7574 484.218,65.0907 487.5,63.5C 492.851,64.0142 498.184,64.6809 503.5,65.5C 494.898,67.2271 486.232,68.5604 477.5,69.5C 475.856,73.6583 474.856,77.9917 474.5,82.5C 484.201,82.3435 493.868,81.6768 503.5,80.5C 507.394,80.4973 508.06,81.6639 505.5,84C 515.493,85.8672 515.493,88.8672 505.5,93C 497.672,95.4657 489.672,96.9657 481.5,97.5 Z"/></g>
<g><path style="opacity:1" fill="#9525a8" d="M 408.5,119.5 C 409.5,119.833 410.167,120.5 410.5,121.5C 409.933,122.42 410.599,122.754 412.5,122.5C 413.492,122.672 414.158,122.338 414.5,121.5C 415.167,121.5 415.5,121.167 415.5,120.5C 416.492,120.672 417.158,120.338 417.5,119.5C 418.492,119.672 419.158,119.338 419.5,118.5C 421.027,118.573 422.027,117.906 422.5,116.5C 424.404,116.262 425.738,115.262 426.5,113.5C 427.167,113.5 427.5,113.167 427.5,112.5C 428.167,112.5 428.5,112.167 428.5,111.5C 429.167,111.5 429.5,111.167 429.5,110.5C 430.167,110.5 430.5,110.167 430.5,109.5C 431.167,109.5 431.5,109.167 431.5,108.5C 434.13,106.372 436.63,104.039 439,101.5C 442.198,104.524 443.198,108.191 442,112.5C 437.442,118.691 431.942,123.858 425.5,128C 431.876,126.298 437.209,122.798 441.5,117.5C 442.833,116.167 444.167,116.167 445.5,117.5C 439.54,126.613 431.206,132.446 420.5,135C 423.941,135.836 424.108,136.669 421,137.5C 411.866,141.316 403.699,139.983 396.5,133.5C 396.167,133.667 395.833,133.833 395.5,134C 398.383,137.701 397.383,139.035 392.5,138C 387.124,134.429 383.291,129.595 381,123.5C 378.463,107.993 379.13,92.6601 383,77.5C 385.187,73.1093 387.854,69.1093 391,65.5C 392.684,63.6487 394.517,61.982 396.5,60.5C 397.192,61.0253 397.692,61.6919 398,62.5C 399.167,61.3333 400.333,60.1667 401.5,59C 400.044,58.5774 399.544,57.7441 400,56.5C 412.607,46.9405 425.774,46.1072 439.5,54C 442.4,56.3968 444.733,59.2302 446.5,62.5C 445.216,63.6297 444.383,64.963 444,66.5C 429.456,62.5994 417.122,66.2661 407,77.5C 402.638,82.887 399.305,88.887 397,95.5C 396.845,103.918 397.678,112.252 399.5,120.5C 402.518,120.296 405.518,119.963 408.5,119.5 Z M 426.5,113.5 C 425.738,115.262 424.404,116.262 422.5,116.5C 423.262,114.738 424.596,113.738 426.5,113.5 Z M 422.5,116.5 C 422.027,117.906 421.027,118.573 419.5,118.5C 419.973,117.094 420.973,116.427 422.5,116.5 Z"/></g>
<g><path style="opacity:0.012" fill="#5d1769" d="M 325.5,76.5 C 325.833,76.5 326.167,76.5 326.5,76.5C 326.029,78.5786 325.363,80.5786 324.5,82.5C 324.167,82.5 323.833,82.5 323.5,82.5C 323.971,80.4214 324.637,78.4214 325.5,76.5 Z"/></g>
<g><path style="opacity:0.157" fill="#5b1667" d="M 236.5,77.5 C 237.29,78.6085 237.79,79.9419 238,81.5C 238.333,80.1667 238.667,78.8333 239,77.5C 239.717,78.0442 240.217,78.7109 240.5,79.5C 239.596,80.209 239.263,81.209 239.5,82.5C 238.5,82.5 237.5,82.5 236.5,82.5C 236.5,80.8333 236.5,79.1667 236.5,77.5 Z"/></g>
<g><path style="opacity:0.999" fill="#822093" d="M 481.5,97.5 C 481.369,98.3764 481.702,99.0431 482.5,99.5C 485.5,98.8333 488.5,98.1667 491.5,97.5C 492.386,98.325 492.719,99.325 492.5,100.5C 485.612,100.672 478.779,101.339 472,102.5C 470.97,102.164 470.47,101.497 470.5,100.5C 470.5,100.167 470.5,99.8333 470.5,99.5C 469.833,99.5 469.5,99.1667 469.5,98.5C 472.722,97.4982 476.722,97.1649 481.5,97.5 Z"/></g>
<g><path style="opacity:0.999" fill="#842095" d="M 431.5,108.5 C 430.833,108.5 430.5,108.833 430.5,109.5C 429.833,109.5 429.5,109.833 429.5,110.5C 428.833,110.5 428.5,110.833 428.5,111.5C 427.833,111.5 427.5,111.833 427.5,112.5C 426.833,112.5 426.5,112.833 426.5,113.5C 424.596,113.738 423.262,114.738 422.5,116.5C 420.973,116.427 419.973,117.094 419.5,118.5C 418.508,118.328 417.842,118.662 417.5,119.5C 416.508,119.328 415.842,119.662 415.5,120.5C 413.776,120.461 413.443,120.794 414.5,121.5C 414.158,122.338 413.492,122.672 412.5,122.5C 412.158,121.662 411.492,121.328 410.5,121.5C 410.167,120.5 409.5,119.833 408.5,119.5C 413.065,117.546 417.398,115.046 421.5,112C 425.682,107.651 430.015,103.485 434.5,99.5C 434.833,100 435.167,100.5 435.5,101C 434.327,103.65 432.994,106.15 431.5,108.5 Z"/></g>
<g><path style="opacity:0.979" fill="#7d1f8e" d="M 452.5,94.5 C 453.401,95.2905 454.068,96.2905 454.5,97.5C 453.167,98.1667 453.167,98.8333 454.5,99.5C 454.5,101.833 454.5,104.167 454.5,106.5C 455.775,109.396 455.775,112.396 454.5,115.5C 453.167,115.833 453.167,116.167 454.5,116.5C 454.5,117.167 454.5,117.833 454.5,118.5C 452.448,119.053 452.115,120.053 453.5,121.5C 453.013,122.473 452.513,123.473 452,124.5C 451.79,122.942 451.29,121.609 450.5,120.5C 449.308,119.434 449.641,118.601 451.5,118C 450.376,117.161 449.709,115.994 449.5,114.5C 451.021,107.9 452.021,101.233 452.5,94.5 Z M 454.5,106.5 C 454.762,107.978 454.429,109.311 453.5,110.5C 452.579,108.969 452.912,107.635 454.5,106.5 Z"/></g>
<g><path style="opacity:1" fill="#8c239e" d="M 347.5,119.5 C 347.5,121.833 347.5,124.167 347.5,126.5C 345.771,125.047 344.771,123.047 344.5,120.5C 345.325,119.614 346.325,119.281 347.5,119.5 Z"/></g>
<g><path style="opacity:0.026" fill="#52145d" d="M 347.5,118.5 C 348.5,118.833 349.167,119.5 349.5,120.5C 348.833,122.5 348.167,124.5 347.5,126.5C 347.5,124.167 347.5,121.833 347.5,119.5C 347.5,119.167 347.5,118.833 347.5,118.5 Z"/></g>
<g><path style="opacity:0.027" fill="#5b1667" d="M 512.5,116.5 C 514.916,118.295 514.916,120.295 512.5,122.5C 513.275,120.388 513.275,118.388 512.5,116.5 Z"/></g>
<g><path style="opacity:0.23" fill="#5c1768" d="M 506.5,127.5 C 506.833,128.167 507.167,128.833 507.5,129.5C 504.482,129.665 501.482,129.498 498.5,129C 501.207,128.605 503.873,128.105 506.5,127.5 Z"/></g>
<g><path style="opacity:0.976" fill="#949494" d="M 128.5,152.5 C 160.835,152.333 193.168,152.5 225.5,153C 226.701,153.903 227.535,155.069 228,156.5C 228.5,169.829 228.667,183.163 228.5,196.5C 312.501,196.333 396.501,196.5 480.5,197C 499.693,201.527 511.527,213.36 516,232.5C 516.667,306.167 516.667,379.833 516,453.5C 511.527,472.64 499.693,484.473 480.5,489C 356.833,489.667 233.167,489.667 109.5,489C 86.5196,482.552 74.3529,467.385 73,443.5C 72.0333,373.147 72.3666,302.814 74,232.5C 81.1729,207.185 98.0062,195.185 124.5,196.5C 124.119,183.121 124.619,169.788 126,156.5C 126.662,155.016 127.496,153.683 128.5,152.5 Z"/></g>
<g><path style="opacity:1" fill="#353535" d="M 136.5,156.5 C 163.835,156.333 191.169,156.5 218.5,157C 220.667,157.833 222.167,159.333 223,161.5C 223.5,173.162 223.667,184.829 223.5,196.5C 192.833,196.5 162.167,196.5 131.5,196.5C 131.333,184.829 131.5,173.162 132,161.5C 133.025,159.313 134.525,157.646 136.5,156.5 Z"/></g>
<g><path style="opacity:1" fill="#f2f2f2" d="M 143.5,159.5 C 149.5,159.5 155.5,159.5 161.5,159.5C 161.5,162.167 161.5,164.833 161.5,167.5C 157.152,167.909 152.819,168.076 148.5,168C 145.5,165.667 142.5,163.333 139.5,161C 141.058,160.79 142.391,160.29 143.5,159.5 Z"/></g>
<g><path style="opacity:1" fill="#ededed" d="M 166.5,159.5 C 167.725,160.152 168.392,161.319 168.5,163C 168.167,164.167 167.833,165.333 167.5,166.5C 166.526,164.257 166.192,161.924 166.5,159.5 Z"/></g>
<g><path style="opacity:1" fill="#f5f5f5" d="M 136.5,165.5 C 139.824,167.167 142.824,169.334 145.5,172C 142.722,173.392 139.722,173.892 136.5,173.5C 136.5,170.833 136.5,168.167 136.5,165.5 Z"/></g>
<g><path style="opacity:1" fill="#353535" d="M 111.5,207.5 C 233.5,207.333 355.5,207.5 477.5,208C 491.519,210.69 500.353,218.857 504,232.5C 504.667,305.833 504.667,379.167 504,452.5C 500.763,466.736 491.929,475.236 477.5,478C 355.5,478.667 233.5,478.667 111.5,478C 97.2711,474.438 88.4378,465.605 85,451.5C 84.3333,378.5 84.3333,305.5 85,232.5C 89.4799,219.519 98.3132,211.186 111.5,207.5 Z"/></g>
<g><path style="opacity:1" fill="#fbfbfb" d="M 486.5,224.5 C 482.702,225.483 478.702,225.817 474.5,225.5C 472.571,225.769 470.905,225.269 469.5,224C 432.51,222.881 395.51,222.214 358.5,222C 357.36,220.027 356.027,218.193 354.5,216.5C 388.828,215.333 423.162,215.167 457.5,216C 468.399,214.971 478.065,217.804 486.5,224.5 Z"/></g>
<g><path style="opacity:1" fill="#efefef" d="M 322.5,216.5 C 325.518,216.335 328.518,216.502 331.5,217C 333.833,219.333 336.167,221.667 338.5,224C 333.139,224.609 327.805,224.442 322.5,223.5C 322.5,221.167 322.5,218.833 322.5,216.5 Z"/></g>
<g><path style="opacity:1" fill="#eeeeee" d="M 337.5,216.5 C 340.64,215.359 343.973,215.192 347.5,216C 349.5,218.333 351.5,220.667 353.5,223C 350.167,223.667 346.833,223.667 343.5,223C 342.002,220.336 340.002,218.17 337.5,216.5 Z"/></g>
<g><path style="opacity:1" fill="#326691" d="M 137.5,221.5 C 148.505,221.333 159.505,221.5 170.5,222C 171.641,227.75 171.807,233.584 171,239.5C 159.91,240.653 148.743,240.82 137.5,240C 136.186,233.834 136.186,227.667 137.5,221.5 Z"/></g>
<g><path style="opacity:1" fill="#828282" d="M 486.5,224.5 C 487.043,224.56 487.376,224.893 487.5,225.5C 483.016,226.811 478.683,226.811 474.5,225.5C 478.702,225.817 482.702,225.483 486.5,224.5 Z"/></g>
<g><path style="opacity:1" fill="#e5e5e5" d="M 482.5,231.5 C 485.287,230.523 488.287,230.19 491.5,230.5C 491.421,231.93 491.754,233.264 492.5,234.5C 489.894,235.652 487.227,235.818 484.5,235C 483.915,233.698 483.249,232.531 482.5,231.5 Z"/></g>
<g><path style="opacity:1" fill="#929292" d="M 274.5,237.5 C 313.533,234.843 349.867,243.343 383.5,263C 410.554,279.935 427.054,304.102 433,335.5C 434.698,370.6 421.865,399.1 394.5,421C 358.682,446.625 318.682,457.625 274.5,454C 242.933,451.04 214.6,440.04 189.5,421C 152.621,390.703 142.455,353.203 159,308.5C 171.999,283.834 191.166,265.668 216.5,254C 235.194,245.794 254.527,240.294 274.5,237.5 Z"/></g>
<g><path style="opacity:1" fill="#f9f9f9" d="M 484.5,240.5 C 487.247,240.187 489.914,240.52 492.5,241.5C 491.167,241.833 489.833,242.167 488.5,242.5C 486.667,242.415 485.334,241.748 484.5,240.5 Z"/></g>
<g><path style="opacity:1" fill="#a8a8a8" d="M 96.5,243.5 C 99.6248,242.521 102.958,242.187 106.5,242.5C 106.81,245.713 106.477,248.713 105.5,251.5C 105.5,248.833 105.5,246.167 105.5,243.5C 102.5,243.5 99.5,243.5 96.5,243.5 Z"/></g>
<g><path style="opacity:1" fill="#fefefe" d="M 96.5,243.5 C 99.5,243.5 102.5,243.5 105.5,243.5C 105.5,246.167 105.5,248.833 105.5,251.5C 103.343,252.407 101.01,253.073 98.5,253.5C 96.5977,250.663 95.931,247.329 96.5,243.5 Z"/></g>
<g><path style="opacity:1" fill="#262626" d="M 274.5,247.5 C 309.539,245.057 342.205,252.557 372.5,270C 396.619,285.129 411.785,306.629 418,334.5C 420.16,367.34 408.326,393.84 382.5,414C 350.188,436.874 314.188,446.54 274.5,443C 246.841,440.006 221.841,430.339 199.5,414C 167.595,388.286 157.428,355.786 169,316.5C 178.613,294.887 193.78,278.387 214.5,267C 233.352,256.548 253.352,250.048 274.5,247.5 Z"/></g>
<g><path style="opacity:1" fill="#8f8f8f" d="M 96.5,243.5 C 95.931,247.329 96.5977,250.663 98.5,253.5C 97.791,254.404 96.791,254.737 95.5,254.5C 95.185,250.629 95.5184,246.962 96.5,243.5 Z"/></g>
<g><path style="opacity:1" fill="#f9f9f9" d="M 100.5,257.5 C 102.167,257.5 103.833,257.5 105.5,257.5C 105.665,260.518 105.498,263.518 105,266.5C 102.333,267.833 99.6667,269.167 97,270.5C 96.5012,266.514 96.3345,262.514 96.5,258.5C 98.099,258.768 99.4324,258.434 100.5,257.5 Z"/></g>
<g><path style="opacity:1" fill="#fbfbfb" d="M 102.5,272.5 C 103.5,272.5 104.5,272.5 105.5,272.5C 106.382,327.515 107.215,382.515 108,437.5C 108.834,443.344 110.834,448.677 114,453.5C 114.497,455.81 114.663,458.143 114.5,460.5C 106.191,459.687 100.691,455.354 98,447.5C 96.8737,390.17 96.5404,332.836 97,275.5C 99.0581,274.771 100.891,273.771 102.5,272.5 Z"/></g>
<g><path style="opacity:1" fill="#f3f3f3" d="M 180.5,331.5 C 184.833,331.5 189.167,331.5 193.5,331.5C 193.5,334.167 193.5,336.833 193.5,339.5C 189.167,339.5 184.833,339.5 180.5,339.5C 180.5,336.833 180.5,334.167 180.5,331.5 Z"/></g>
<g><path style="opacity:1" fill="#e4e4e4" d="M 180.5,344.5 C 185.167,344.5 189.833,344.5 194.5,344.5C 194.5,345.5 194.5,346.5 194.5,347.5C 189.833,347.5 185.167,347.5 180.5,347.5C 180.5,346.5 180.5,345.5 180.5,344.5 Z"/></g>
<g><path style="opacity:1" fill="#fafafa" d="M 250.5,419.5 C 249.566,420.568 249.232,421.901 249.5,423.5C 248.167,423.5 246.833,423.5 245.5,423.5C 221.201,419.712 203.035,407.045 191,385.5C 184.973,374.92 181.473,363.586 180.5,351.5C 185.493,351.916 190.493,352.249 195.5,352.5C 197.73,371.053 205.397,386.887 218.5,400C 228.405,406.73 239.405,410.23 251.5,410.5C 250.841,413.455 250.508,416.455 250.5,419.5 Z"/></g>
<g><path style="opacity:1" fill="#f7f7f7" d="M 256.5,410.5 C 260.5,410.5 264.5,410.5 268.5,410.5C 268.5,415.5 268.5,420.5 268.5,425.5C 263.833,425.5 259.167,425.5 254.5,425.5C 254.878,420.42 255.545,415.42 256.5,410.5 Z"/></g>
<g><path style="opacity:1" fill="#fbfbfb" d="M 291.5,415.5 C 294.833,415.5 298.167,415.5 301.5,415.5C 301.5,420.5 301.5,425.5 301.5,430.5C 298.167,430.5 294.833,430.5 291.5,430.5C 291.5,425.5 291.5,420.5 291.5,415.5 Z"/></g>
<g><path style="opacity:1" fill="#f2f2f2" d="M 307.5,414.5 C 309.92,414.292 312.253,414.626 314.5,415.5C 315.492,419.783 315.826,424.116 315.5,428.5C 312.518,428.963 309.518,429.296 306.5,429.5C 306.221,424.405 306.555,419.405 307.5,414.5 Z"/></g>
<g><path style="opacity:1" fill="#d1d1d1" d="M 284.5,415.5 C 286.322,419.782 287.655,424.449 288.5,429.5C 286.994,430.747 285.494,430.747 284,429.5C 283.227,424.748 283.393,420.081 284.5,415.5 Z"/></g>
<g><path style="opacity:1" fill="#959595" d="M 250.5,419.5 C 250.5,421.167 250.5,422.833 250.5,424.5C 248.585,424.784 246.919,424.451 245.5,423.5C 246.833,423.5 248.167,423.5 249.5,423.5C 249.232,421.901 249.566,420.568 250.5,419.5 Z"/></g>
<g><path style="opacity:1" fill="#e9e9e9" d="M 119.5,455.5 C 120.833,455.5 122.167,455.5 123.5,455.5C 123.5,457.5 123.5,459.5 123.5,461.5C 122.167,461.5 120.833,461.5 119.5,461.5C 119.5,459.5 119.5,457.5 119.5,455.5 Z"/></g>
<g><path style="opacity:1" fill="#fefffe" d="M 128.5,455.5 C 129.649,455.791 130.316,456.624 130.5,458C 130.167,458.833 129.833,459.667 129.5,460.5C 128.548,458.955 128.215,457.288 128.5,455.5 Z"/></g>
<g><path style="opacity:1" fill="#9625a9" d="M 84.5,541.5 C 85.8333,530.5 85.8333,519.5 84.5,508.5C 83.2241,507.614 83.2241,506.614 84.5,505.5C 89.0203,503.499 91.8537,504.832 93,509.5C 94.4598,506.79 96.4598,506.124 99,507.5C 99.4513,524.536 99.4513,541.869 99,559.5C 100.352,556.28 101.186,552.947 101.5,549.5C 103.144,549.286 104.644,549.62 106,550.5C 106.188,548.939 105.355,548.272 103.5,548.5C 104.978,541.215 107.812,534.549 112,528.5C 118.582,527.986 125.082,528.653 131.5,530.5C 132.998,539.487 134.498,548.487 136,557.5C 141.739,538.118 147.572,518.785 153.5,499.5C 155.124,499.36 156.29,500.027 157,501.5C 160.073,500.383 163.24,500.216 166.5,501C 168.285,502.163 170.285,502.83 172.5,503C 173.804,503.804 174.471,504.971 174.5,506.5C 166.101,536.196 157.601,565.863 149,595.5C 147.331,597.721 145.331,598.055 143,596.5C 138.69,600.124 134.023,600.457 129,597.5C 129.013,593.876 127.68,590.876 125,588.5C 123.46,580.467 121.794,572.467 120,564.5C 115.391,574.718 111.057,585.052 107,595.5C 105.281,597.557 103.281,599.224 101,600.5C 100.055,600.095 99.3879,599.428 99,598.5C 94.9341,599.464 90.7675,599.797 86.5,599.5C 86.5,598.5 86.5,597.5 86.5,596.5C 85.5,596.5 84.5,596.5 83.5,596.5C 83.2076,592.436 82.2076,588.602 80.5,585C 80.6667,583.833 80.8333,582.667 81,581.5C 82.7888,584.179 83.9555,584.013 84.5,581C 82.5623,568.074 82.5623,554.908 84.5,541.5 Z M 154.5,509.5 C 150.182,526.289 145.349,542.956 140,559.5C 143.323,542.367 148.157,525.7 154.5,509.5 Z M 115.5,556.5 C 113.254,567.244 109.254,577.244 103.5,586.5C 106.539,576.038 110.539,566.038 115.5,556.5 Z"/></g>
<g><path style="opacity:1" fill="#9625a9" d="M 216.5,506.5 C 220.257,506.071 223.757,506.737 227,508.5C 238.162,505.831 248.329,507.998 257.5,515C 266.605,522.218 273.272,531.218 277.5,542C 280.027,563.612 271.694,579.612 252.5,590C 242.781,595.406 232.448,598.906 221.5,600.5C 218.585,600.424 216.085,599.424 214,597.5C 213.51,598.793 213.343,600.127 213.5,601.5C 211.833,601.5 210.167,601.5 208.5,601.5C 208.66,599.801 208.494,598.134 208,596.5C 206.815,598.559 205.648,598.726 204.5,597C 205.765,595.344 207.099,593.677 208.5,592C 205.388,589.561 203.055,586.561 201.5,583C 202.934,564.759 205.101,546.592 208,528.5C 209.04,521.674 210.706,515.008 213,508.5C 214.302,507.915 215.469,507.249 216.5,506.5 Z M 232.5,526.5 C 237.844,526.334 243.177,526.501 248.5,527C 260.364,531.217 264.197,539.383 260,551.5C 258.094,555.899 255.594,559.899 252.5,563.5C 252.709,564.086 253.043,564.586 253.5,565C 243.238,569.81 232.571,573.31 221.5,575.5C 222.598,559.713 224.598,544.047 227.5,528.5C 229.698,528.88 231.365,528.213 232.5,526.5 Z M 265.5,543.5 C 266.694,547.389 266.528,551.389 265,555.5C 264.83,551.507 264.996,547.507 265.5,543.5 Z M 222.5,588.5 C 224.379,588.393 224.712,588.893 223.5,590C 220.125,590.632 219.791,590.132 222.5,588.5 Z"/></g>
<g><path style="opacity:1" fill="#9625aa" d="M 190.5,506.5 C 193.985,506.594 196.985,507.761 199.5,510C 201.218,512.388 202.218,514.722 202.5,517C 194.402,541.455 191.069,566.455 192.5,592C 190.197,596.315 187.864,600.649 185.5,605C 181.756,605.929 178.256,605.429 175,603.5C 174.977,600.949 175.477,598.449 176.5,596C 174.649,594.316 172.982,592.483 171.5,590.5C 173.653,578.617 174.82,566.617 175,554.5C 177.267,551.016 177.767,547.349 176.5,543.5C 177.376,542.749 178.376,542.249 179.5,542C 178.903,540.938 178.57,539.772 178.5,538.5C 179.77,532.318 181.103,526.151 182.5,520C 183.025,515.95 183.025,511.783 182.5,507.5C 185.385,507.806 188.052,507.473 190.5,506.5 Z"/></g>
<g><path style="opacity:1" fill="#9825ab" d="M 312.5,557.5 C 307.722,557.165 303.722,557.498 300.5,558.5C 300.5,559.167 300.833,559.5 301.5,559.5C 301.5,559.833 301.5,560.167 301.5,560.5C 299.143,564.527 297.143,568.86 295.5,573.5C 295.167,573.833 294.833,574.167 294.5,574.5C 293.702,572.922 293.202,571.256 293,569.5C 292.73,572.224 292.23,574.891 291.5,577.5C 293,577.833 294.5,578.167 296,578.5C 311.829,575.921 327.662,575.254 343.5,576.5C 344.275,578.388 344.275,580.388 343.5,582.5C 343.192,586.009 341.192,587.676 337.5,587.5C 334.873,588.105 332.207,588.605 329.5,589C 332.482,589.498 335.482,589.665 338.5,589.5C 338.5,590.5 338.5,591.5 338.5,592.5C 323.144,594.432 307.81,596.598 292.5,599C 288.5,599.667 284.5,599.667 280.5,599C 279.28,597.475 278.613,595.641 278.5,593.5C 278.892,588.999 279.892,584.666 281.5,580.5C 282.29,581.609 282.79,582.942 283,584.5C 283.513,583.473 284.013,582.473 284.5,581.5C 284.557,580.391 284.89,579.391 285.5,578.5C 285.5,577.833 285.5,577.167 285.5,576.5C 285.5,576.167 285.5,575.833 285.5,575.5C 286.775,572.396 286.775,569.396 285.5,566.5C 285.5,564.167 285.5,561.833 285.5,559.5C 285.5,558.833 285.5,558.167 285.5,557.5C 285.068,556.29 284.401,555.29 283.5,554.5C 285.142,551.928 285.476,549.261 284.5,546.5C 285.497,540.527 286.33,534.527 287,528.5C 287.667,527.167 288.333,527.167 289,528.5C 289.66,525.953 289.493,523.453 288.5,521C 289.764,516.248 290.431,511.414 290.5,506.5C 307.92,507.245 325.586,507.745 343.5,508C 347.757,509.773 348.59,512.606 346,516.5C 345.215,518.286 344.049,519.786 342.5,521C 331.485,521.168 320.485,521.668 309.5,522.5C 312.218,524.757 315.218,525.091 318.5,523.5C 323.851,524.014 329.184,524.681 334.5,525.5C 325.898,527.227 317.232,528.56 308.5,529.5C 306.856,533.658 305.856,537.992 305.5,542.5C 315.201,542.343 324.868,541.677 334.5,540.5C 338.394,540.497 339.06,541.664 336.5,544C 346.493,545.867 346.493,548.867 336.5,553C 328.672,555.466 320.672,556.966 312.5,557.5 Z"/></g>
<g><path style="opacity:0.286" fill="#61176e" d="M 84.5,508.5 C 85.8333,519.5 85.8333,530.5 84.5,541.5C 84.4435,530.709 84.4435,519.709 84.5,508.5 Z"/></g>
<g><path style="opacity:0.999" fill="#822093" d="M 312.5,557.5 C 312.369,558.376 312.702,559.043 313.5,559.5C 316.5,558.833 319.5,558.167 322.5,557.5C 323.386,558.325 323.719,559.325 323.5,560.5C 316.612,560.672 309.779,561.339 303,562.5C 301.97,562.164 301.47,561.497 301.5,560.5C 301.5,560.167 301.5,559.833 301.5,559.5C 300.833,559.5 300.5,559.167 300.5,558.5C 303.722,557.498 307.722,557.165 312.5,557.5 Z"/></g>
<g><path style="opacity:0.979" fill="#7d1f8e" d="M 283.5,554.5 C 284.401,555.29 285.068,556.29 285.5,557.5C 284.167,558.167 284.167,558.833 285.5,559.5C 285.5,561.833 285.5,564.167 285.5,566.5C 286.775,569.396 286.775,572.396 285.5,575.5C 284.167,575.833 284.167,576.167 285.5,576.5C 285.5,577.167 285.5,577.833 285.5,578.5C 283.448,579.053 283.115,580.053 284.5,581.5C 284.013,582.473 283.513,583.473 283,584.5C 282.79,582.942 282.29,581.609 281.5,580.5C 280.308,579.434 280.641,578.601 282.5,578C 281.376,577.161 280.709,575.994 280.5,574.5C 282.021,567.9 283.021,561.233 283.5,554.5 Z M 285.5,566.5 C 285.762,567.978 285.429,569.311 284.5,570.5C 283.579,568.969 283.912,567.635 285.5,566.5 Z"/></g>
<g><path style="opacity:0.027" fill="#5b1667" d="M 343.5,576.5 C 345.916,578.295 345.916,580.295 343.5,582.5C 344.275,580.388 344.275,578.388 343.5,576.5 Z"/></g>
<g><path style="opacity:0.23" fill="#5c1768" d="M 337.5,587.5 C 337.833,588.167 338.167,588.833 338.5,589.5C 335.482,589.665 332.482,589.498 329.5,589C 332.207,588.605 334.873,588.105 337.5,587.5 Z"/></g>
</svg>
